<svg width="500" height="500" viewBox="0 0 500 500" fill="none" xmlns="http://www.w3.org/2000/svg">
<path fill-rule="evenodd" clip-rule="evenodd" d="M500 250C500 388.071 388.071 500 250 500C111.929 500 0 388.071 0 250C0 111.929 111.929 0 250 0C388.071 0 500 111.929 500 250ZM143 170C143 158.954 151.954 150 163 150H223C234.046 150 243 158.954 243 170V330C243 341.046 234.046 350 223 350H163C151.954 350 143 341.046 143 330V170ZM277 150C265.954 150 257 158.954 257 170V330C257 341.046 265.954 350 277 350H337C348.046 350 357 341.046 357 330V170C357 158.954 348.046 150 337 150H277Z" fill="#D9D9D9"/>
</svg>
