<svg width="400" height="500" viewBox="0 0 400 500" fill="none" xmlns="http://www.w3.org/2000/svg">
<mask id="path-1-inside-1_96_44" fill="white">
<path fill-rule="evenodd" clip-rule="evenodd" d="M259.422 0H25C11.1929 0 0 11.1929 0 25V475C0 488.807 11.1929 500 25 500H375C388.807 500 400 488.807 400 475V142.264L399.477 142.787L258.056 1.36571L259.422 0Z"/>
</mask>
<path d="M259.422 0L273.564 14.1421L307.706 -20L259.422 -20V0ZM400 142.264H420V93.9801L385.858 128.122L400 142.264ZM399.477 142.787L385.335 156.929L399.477 171.071L413.619 156.929L399.477 142.787ZM258.056 1.36571L243.914 -12.7764L229.772 1.36578L243.914 15.5078L258.056 1.36571ZM25 20H259.422V-20H25V20ZM20 25C20 22.2386 22.2386 20 25 20V-20C0.147181 -20 -20 0.147198 -20 25H20ZM20 475V25H-20V475H20ZM25 480C22.2386 480 20 477.761 20 475H-20C-20 499.853 0.147192 520 25 520V480ZM375 480H25V520H375V480ZM380 475C380 477.761 377.761 480 375 480V520C399.853 520 420 499.853 420 475H380ZM380 142.264V475H420V142.264H380ZM385.858 128.122L385.335 128.645L413.619 156.929L414.142 156.406L385.858 128.122ZM413.619 128.645L272.198 -12.7764L243.914 15.5078L385.335 156.929L413.619 128.645ZM272.198 15.5078L273.564 14.1421L245.279 -14.1421L243.914 -12.7764L272.198 15.5078Z" fill="#D4D4D4" mask="url(#path-1-inside-1_96_44)"/>
<path fill-rule="evenodd" clip-rule="evenodd" d="M238 0V143V155.003V163H400V143H258V0H238Z" fill="#D4D4D4"/>
</svg>
