<svg width="500" height="500" viewBox="0 0 500 500" fill="none" xmlns="http://www.w3.org/2000/svg">
<path fill-rule="evenodd" clip-rule="evenodd" d="M250 500C388.071 500 500 388.071 500 250C500 111.929 388.071 0 250 0C111.929 0 0 111.929 0 250C0 388.071 111.929 500 250 500ZM250 250C291.421 250 325 216.421 325 175C325 133.579 291.421 100 250 100C208.579 100 175 133.579 175 175C175 216.421 208.579 250 250 250ZM200 330C200 357.614 177.614 380 150 380C122.386 380 100 357.614 100 330C100 302.386 122.386 280 150 280C177.614 280 200 302.386 200 330ZM350 380C377.614 380 400 357.614 400 330C400 302.386 377.614 280 350 280C322.386 280 300 302.386 300 330C300 357.614 322.386 380 350 380Z" fill="#D9D9D9"/>
</svg>
