<svg width="500" height="500" viewBox="0 0 500 500" fill="none" xmlns="http://www.w3.org/2000/svg">
<path fill-rule="evenodd" clip-rule="evenodd" d="M250 500C388.071 500 500 388.071 500 250C500 111.929 388.071 0 250 0C111.929 0 0 111.929 0 250C0 388.071 111.929 500 250 500ZM250 320.928C210.828 320.928 179.072 289.172 179.072 250C179.072 210.828 210.828 179.072 250 179.072C289.172 179.072 320.928 210.828 320.928 250C320.928 289.172 289.172 320.928 250 320.928ZM250 154C277.614 154 300 131.614 300 104C300 76.3857 277.614 54 250 54C222.386 54 200 76.3857 200 104C200 131.614 222.386 154 250 154Z" fill="#D9D9D9"/>
</svg>
