<svg width="500" height="500" viewBox="0 0 500 500" fill="none" xmlns="http://www.w3.org/2000/svg">
<path d="M250 0C189.926 -7.16374e-07 131.861 21.6318 86.43 60.9369C40.999 100.242 11.2403 154.592 2.59958 214.041C-6.04115 273.49 7.0139 334.063 39.3758 384.675C71.7376 435.287 121.242 472.554 178.83 489.656C236.418 506.757 298.239 502.551 352.98 477.805C407.72 453.06 451.72 409.43 476.927 354.901C502.134 300.371 506.863 238.588 490.248 180.857C473.634 123.127 436.787 73.3093 386.45 40.521L336.784 116.769C368.799 137.623 392.234 169.307 402.801 206.025C413.368 242.742 410.36 282.037 394.328 316.718C378.296 351.399 350.312 379.148 315.496 394.887C280.681 410.625 241.362 413.301 204.735 402.424C168.108 391.547 136.623 367.845 116.041 335.655C95.458 303.465 87.1548 264.94 92.6505 227.13C98.1461 189.319 117.073 154.752 145.968 129.754C174.862 104.755 211.792 90.9971 250 90.9971L250 0Z" fill="#D4D4D4"/>
</svg>
